<?xml version="1.0" encoding="UTF-8"?>
<svg version="1.1" xmlns="http://www.w3.org/2000/svg" width="394" height="399">
<path d="M0 0 C130.02 0 260.04 0 394 0 C394 131.67 394 263.34 394 399 C263.98 399 133.96 399 0 399 C0 267.33 0 135.66 0 0 Z " fill="#FEFEFE" transform="translate(0,0)"/>
<path d="M0 0 C35.22801874 -1.39593304 71.44515293 9.21094647 98.69433594 32.09423828 C99.86615831 33.05263596 101.03803638 34.01096556 102.20996094 34.96923828 C127.95530875 56.27738843 144.7750139 84.70463018 152.69433594 117.09423828 C152.90703125 117.93599609 153.11972656 118.77775391 153.33886719 119.64501953 C155.02056684 127.03723886 155.40759612 134.53839244 155.69433594 142.09423828 C155.74533447 143.25294434 155.74533447 143.25294434 155.79736328 144.43505859 C157.18090504 179.64865432 146.56662645 215.8581555 123.69433594 243.09423828 C122.73593826 244.26606066 121.77760866 245.43793872 120.81933594 246.60986328 C114.94403546 253.70863315 108.8789505 260.28254575 101.69433594 266.09423828 C100.92476563 266.72144775 100.92476563 266.72144775 100.13964844 267.36132812 C71.79700047 290.15686746 36.23053307 301.62661802 -0.01318359 300.18408203 C-2.07716488 300.10319331 -4.14270696 300.06481617 -6.20800781 300.03173828 C-38.37033726 298.91426321 -69.27707461 283.69522012 -93.30566406 263.09423828 C-94.58957031 262.01335937 -94.58957031 262.01335937 -95.89941406 260.91064453 C-102.13702853 255.51048756 -107.25957162 249.60503721 -112.30566406 243.09423828 C-113.02367188 242.22669922 -113.74167969 241.35916016 -114.48144531 240.46533203 C-135.97022083 213.63298889 -145.74877437 178.38754107 -144.39550781 144.38671875 C-144.31461909 142.32273746 -144.27624195 140.25719538 -144.24316406 138.19189453 C-143.12548569 106.02371386 -127.90320161 75.13060739 -107.30566406 51.09423828 C-106.60828125 50.26150391 -105.91089844 49.42876953 -105.19238281 48.57080078 C-81.91733928 21.59387647 -45.4978398 3.20315668 -9.99316406 0.34423828 C-8.12152547 0.26675006 -6.24965791 0.19036584 -4.37695312 0.14550781 C-2.91760975 0.10938545 -1.45857256 0.05961552 0 0 Z " fill="#89D5F2" transform="translate(194.3056640625,48.90576171875)"/>
<path d="M0 0 C18.14904683 16.80365607 30.52314289 39.24380136 31.66894531 64.29052734 C32.66778324 91.63213505 24.40232054 117.10143508 5.58203125 137.390625 C-12.00564545 155.40792433 -35.95099155 166.11504658 -61.13525391 166.625 C-69.07022678 166.67786678 -76.66476663 166.20940566 -84.41796875 164.390625 C-85.52398437 164.13410156 -86.63 163.87757813 -87.76953125 163.61328125 C-101.13742593 160.16015546 -112.69493715 154.03718452 -123.41796875 145.390625 C-124.25972656 144.71386719 -125.10148437 144.03710938 -125.96875 143.33984375 C-143.43838335 128.47842937 -155.19891897 106.65544329 -158.140625 83.90625 C-159.02905421 72.64447128 -159.00853216 61.43382674 -156.41796875 50.390625 C-156.16144531 49.28460938 -155.90492188 48.17859375 -155.640625 47.0390625 C-149.59339918 23.62877199 -135.32418719 4.78466626 -115.41796875 -8.609375 C-114.25007813 -9.41181641 -114.25007813 -9.41181641 -113.05859375 -10.23046875 C-78.19094771 -32.75403205 -30.75857535 -26.4802962 0 0 Z " fill="#FEFEFE" transform="translate(263.41796875,127.609375)"/>
<path d="M0 0 C21.02150939 17.03770244 36.8246748 39.20796744 43.21582031 65.76757812 C43.64845467 67.52857013 44.14541054 69.27343408 44.6484375 71.015625 C52.20513235 99.71719992 44.46007215 132.26222267 30.1640625 157.6171875 C14.11351701 184.75300182 -12.66571426 204.09823567 -42.97460938 212.1015625 C-75.95883994 220.36828695 -108.12724479 215.03513904 -137.29150391 197.94238281 C-165.11045695 180.66895703 -183.16436922 152.92749874 -190.8515625 121.48242188 C-198.15895034 89.49810131 -191.46815224 57.31677807 -174.3125 29.6875 C-157.70873453 4.95835348 -132.39859534 -13.89825856 -103.28417969 -20.84082031 C-101.4235816 -21.28592624 -99.57446202 -21.77824874 -97.7265625 -22.2734375 C-64.82968249 -30.18902231 -26.53003322 -20.68243168 0 0 Z M-94.3125 2.6875 C-95.41851562 2.94402344 -96.52453125 3.20054688 -97.6640625 3.46484375 C-122.05303313 9.76487718 -142.81141135 26.03031047 -156 47.375 C-168.45365349 69.58884239 -172.08272077 96.06409147 -165.3125 120.6875 C-157.59631163 146.62090195 -141.11283733 167.34212684 -117.42822266 180.59179688 C-95.67267558 191.85868994 -69.72046764 194.05719694 -46.2890625 187.08544922 C-21.62897623 179.20201647 -1.82177303 163.55120485 10.6875 140.6875 C21.19950221 120.2521677 24.97257658 97.21702647 19.6875 74.6875 C19.30271484 73.02847656 19.30271484 73.02847656 18.91015625 71.3359375 C15.45703046 57.96804282 9.33405952 46.4105316 0.6875 35.6875 C0.01074219 34.84574219 -0.66601562 34.00398438 -1.36328125 33.13671875 C-16.22469563 15.6670854 -38.04768171 3.90654978 -60.796875 0.96484375 C-72.05865372 0.07641454 -83.26929826 0.09693659 -94.3125 2.6875 Z " fill="#0198E0" transform="translate(273.3125,103.3125)"/>
</svg>
